PathFileType	4	(X/Y/Z)	C:/Users/beibeiliu/ov580/test_trc\sequence.11_training_dense_right.trc
DataRate	CameraRate	NumFrames	NumMarkers	Units	OrigDataRate	OrigDataStartFrame	OrigNumFrames
120	120	22	19	mm	120	32	124
Frame#	Time	ThumbCMC			ThumbMCP			ThumbIP			ThumbTip			IndexMCP			IndexPIP			IndexTip			MiddleMCP			MiddlePIP			MiddleTip			RingMCP			RingPIP			RingTip			PinkyMCP			PinkyPIP			PinkyTip			BackHand1			BackHand2			BackHand3	
		X0	Y0	Z0	X1	Y1	Z1	X2	Y2	Z2	X3	Y3	Z3	X4	Y4	Z4	X5	Y5	Z5	X6	Y6	Z6	X7	Y7	Z7	X8	Y8	Z8	X9	Y9	Z9	X10	Y10	Z10	X11	Y11	Z11	X12	Y12	Z12	X13	Y13	Z13	X14	Y14	Z14	X15	Y15	Z15	X16	Y16	Z16	X17	Y17	Z17	X18	Y18	Z18	
31	0.258333	194.638	-22.1906	129.979	176.536	-10.8414	99.5563	167.987	-9.44007	76.5655	155.138	-20.7414	55.0206	204.872	-63.2466	71.8389	197.915	-61.2374	41.0852	179.453	-54.709	20.4589	184.428	-76.5903	65.2689	166.628	-65.376	42.2597	146.422	-34.6484	37.866	169.163	-86.7814	73.0673	154.451	-81.0755	48.517	141.836	-61.9962	32.7785	152.037	-96.1504	94.831	143.955	-103.448	73.082	133.541	-108.474	48.859	180.399	-81.7151	127.672	183.145	-74.8249	158.598	202.811	-61.3447	137.195	
32	0.266667	204.749	-19.0245	133.221	188.522	-10.0235	98.6188	181.487	-10.3091	72.0544	169.063	-24.57	53.6465	218.783	-65.6572	77.0019	215.536	-63.9854	43.3391	200.826	-59.2156	23.9592	198.833	-77.9123	72.2021	185.204	-66.7325	42.5966	160.858	-41.9824	37.4425	181.772	-89.5026	78.0918	171.694	-85.5994	50.5287	154.222	-66.1518	31.3648	164.704	-95.7942	96.8754	153.745	-106.986	75.6154	147.198	-110.578	47.2091	186.977	-83.8692	132.994	183.906	-75.2006	159.434	210.681	-62.1497	138.201	
33	0.275	209.402	-18.8145	133.481	196.473	-6.73431	103.422	189.779	-8.22554	75.6661	180.268	-23.8088	52.2082	231.673	-64.9044	77.0615	228.235	-67.3893	50.2368	212.177	-64.0165	26.592	206.169	-79.6581	76.3808	196.541	-70.4149	45.138	176.584	-44.8717	36.3526	190.588	-91.3237	78.016	181.747	-88.4117	52.0199	166.897	-71.5646	33.5908	172.957	-97.1834	96.4125	165.587	-106.906	76.206	158.159	-115.457	48.6252	195.243	-82.0777	135.544	191.868	-71.7273	159.723	218.612	-55.2324	143.92	
34	0.283333	212.733	-18.2836	132.957	201.735	-5.99488	100.842	195.035	-9.62874	78.8312	186.662	-21.9375	52.7882	232.59	-65.4634	81.7897	235.416	-65.3102	49.4946	222.281	-62.7571	28.2597	216.861	-76.3879	73.9164	204.49	-70.0625	47.5806	181.698	-41.883	38.3	198.633	-88.0249	81.6365	189.305	-87.6359	55.5738	177.616	-66.5308	31.0475	178.577	-94.223	97.2358	171.847	-104.669	75.8459	169.378	-112.097	51.2996	195.36	-77.7682	137.555	193.124	-66.6727	163.74	221.339	-54.596	143.434	
35	0.291667	214.327	-15.1741	136.672	203.552	-4.92335	100.197	197.951	-4.52709	75.5115	187.997	-20.6546	57.1364	239.687	-61.4211	79.312	234.67	-64.3604	54.1485	226.769	-58.6616	28.2463	218.095	-76.3916	73.4011	205.917	-67.7635	46.2194	183.576	-42.346	38.2214	198.455	-86.8144	83.2243	193.997	-82.4953	51.6682	177.942	-64.0266	30.4336	182.266	-93.0197	95.4467	176.954	-100.189	77.6606	171.343	-108.124	50.4239	201.952	-75.3649	137.018	194.816	-64.804	165.808	221.921	-54.7499	145.536	
36	0.3	216.338	-14.0786	133.011	202.86	-2.25862	104.341	198.234	-4.44444	72.3786	188.491	-16.7407	55.0239	237.237	-60.5251	80.0819	238.558	-59.54	52.1863	224.552	-56.6349	28.7438	221.3	-70.9312	72.946	207.471	-64.3224	47.1057	187.534	-34.3473	36.9488	201.489	-82.6733	82.1415	193.507	-78.7941	50.546	181.263	-59.1801	31.0271	180.647	-88.8033	98.2167	176.205	-101.142	71.4711	174.749	-106.161	52.2032	201.418	-71.846	135.182	198.785	-64.4874	160.283	223.168	-50.6542	147.244	
37	0.308333	214.746	-11.1708	136.743	203.172	1.81064	104.258	197.709	-0.944099	72.2682	187.994	-14.7985	54.515	238.726	-55.2332	80.8598	237.981	-58.1464	52.8215	229.736	-50.2451	25.7865	221.071	-69.2925	72.7662	206.132	-61.3172	46.032	184.62	-33.2336	38.8523	204.054	-81.3017	81.5545	195.646	-75.9731	49.5032	184.965	-57.9982	31.5335	182.968	-89.2946	95.5839	179.174	-98.8643	70.9651	177.292	-103.518	46.7116	203.857	-72.2422	136.472	198.818	-66.3666	160.476	226.218	-50.1065	141.788	
38	0.316667	215.498	-6.88667	137.259	202.809	3.697	104.655	197.848	1.02984	73.875	188.917	-9.95969	56.4338	242.073	-51.4436	77.7976	242.59	-51.3106	50.3704	229.173	-46.0511	25.3023	221.62	-66.5492	74.3621	211.916	-56.4927	46.1094	188.717	-28.7846	37.1094	208.473	-76.954	77.5003	198.706	-76.1422	52.4437	187.17	-55.6738	31.285	187.846	-85.5785	96.832	182.333	-96.1241	75.7901	180.963	-101.047	50.0779	205.928	-67.7174	135.415	203.281	-60.9585	159.926	228.139	-47.0034	143.547	
39	0.325	215.66	0.697924	135.982	201.466	5.25038	101.235	196.122	2.57522	75.5566	187.994	-6.18805	57.1962	243.306	-41.597	82.6691	245.75	-44.0046	52.7192	233.041	-39.2572	25.6308	227.347	-58.9656	71.5415	211.434	-51.1665	43.6393	187.163	-26.7517	37.3384	208.799	-74.6075	76.5616	201.887	-69.8266	49.9913	187.339	-50.1371	30.1689	193.17	-81.0154	94.0263	186.221	-92.8697	71.4893	181.762	-97.155	45.3906	206.423	-66.327	134.139	200.841	-57.9698	162.248	230.059	-40.7157	143.088	
40	0.333333	214.695	2.91602	133.579	199.038	10.5315	103.623	194.19	10.3735	76.0799	187.792	-3.59767	56.0628	243.213	-37.9004	81.6289	241.458	-41.253	52.2809	228.4	-35.0751	23.6851	223.398	-57.2244	73.6499	214.088	-48.4287	45.9346	188.559	-23.4083	35.3226	206.38	-69.9696	80.7024	201.452	-66.4546	50.2489	186.027	-50.0969	30.1874	188.169	-79.3699	94.295	183.938	-89.1514	70.4604	179.831	-94.507	45.9345	206.753	-60.2659	132.65	201.079	-54.9061	161.185	224.274	-37.1844	143.292	
41	0.341667	213.213	2.08156	135.231	199.045	13.9485	105.65	194.417	8.64109	76.516	186.873	-3.15722	54.0459	243.978	-36.2811	81.0914	241.933	-39.1947	51.255	231.394	-33.5956	26.7744	225.069	-54.7217	70.5233	210.141	-48.1821	44.6168	185.182	-23.1042	36.1264	207.611	-69.6374	77.3072	203.1	-66.0863	51.7032	184.356	-46.3939	29.2005	187.768	-77.1865	96.1782	187.477	-86.6638	68.3424	180.705	-93.9655	47.5501	206.14	-60.9573	135.336	199.878	-53.4001	157.958	226.712	-33.8609	144.197	
42	0.35	213.314	-0.0769331	135.233	198.594	11.4117	107.091	194.233	9.79575	76.1424	187.143	-3.47751	53.7358	241.561	-40.004	78.4855	240.709	-40.9013	53.3455	229.225	-35.5605	27.7538	223.421	-56.8809	71.0261	211.888	-50.5108	46.2359	187.461	-24.9753	35.4039	210.154	-66.6985	79.195	201.989	-65.7623	50.1276	189.632	-48.8315	31.0686	188.427	-78.93	96.0077	186.335	-88.8454	73.7998	183.282	-95.597	46.8322	207.226	-61.329	135.542	200.734	-55.755	158.751	227.48	-35.6756	141.331	
43	0.358333	213.493	2.16978	136.02	197.986	8.6727	107.237	193.501	8.40505	79.5783	187.314	-3.50633	59.1142	240.402	-40.0763	84.1285	243.732	-39.882	50.1177	232.341	-36.6429	27.9992	224.457	-54.8826	76.7691	215.141	-47.293	45.5776	191.082	-26.3139	35.8408	210.498	-68.7767	81.8946	202.472	-65.2021	49.6436	185.519	-51.4985	31.7816	190.338	-81.4798	96.0658	189.741	-88.5064	73.1613	184.435	-96.0251	48.3123	207.754	-61.0978	136.447	202.585	-56.2711	160.389	224.185	-37.4639	146	
44	0.366667	211.758	-2.82638	134.342	197.936	7.73783	108.384	193.034	7.43678	80.6829	186.722	-4.08356	58.1517	243.99	-40.8591	80.4035	244.68	-40.9128	54.1402	229.057	-40.2133	27.3441	225.584	-55.3725	74.1453	211.586	-50.1742	45.9302	188.608	-26.357	36.8774	210.031	-70.3789	78.449	202.66	-66.3665	49.5761	185.701	-51.6533	32.3006	192.765	-78.1371	95.6774	188.294	-90.4866	72.1283	187.445	-94.5808	48.2429	209.451	-64.6837	133.675	200.387	-55.041	163.705	226.18	-36.0748	146.662	
45	0.375	211.98	-2.28236	135.286	198.604	8.04142	105.152	194.364	9.03789	77.4116	186.912	-4.42093	54.7732	241.022	-41.6175	84.6652	244.272	-40.1945	53.9135	230.056	-37.4137	26.001	226.655	-55.3548	75.3083	215.827	-49.8552	47.3629	187.677	-27.7903	37.2964	210.861	-68.3799	83.2689	202.652	-67.2731	50.9352	187.172	-52.1354	31.2314	191.447	-82.573	96.0745	190.165	-88.7086	75.9114	183.026	-99.6012	49.2515	209.579	-61.1155	135.534	200.614	-57.9302	165.456	229.296	-35.3372	143.994	
46	0.383333	213.373	0.0437572	134.976	199.141	6.83835	106.487	193.819	6.96658	75.2633	186.991	-5.58609	59.5298	243.433	-39.5645	83.4947	242.598	-44.1749	54.2785	228.038	-40.4074	25.6751	224.937	-57.3235	76.3146	213.666	-50.2019	46.4811	187.817	-29.2778	37.6195	211.243	-69.8959	83.5495	203.005	-68.7782	51.6704	187.331	-53.1883	31.384	190.831	-85.4002	96.7297	186.882	-93.8599	71.8005	186.225	-97.3846	49.4477	206.399	-66.3459	132.732	201.877	-59.7674	161.445	226.481	-39.2717	145.131	
47	0.391667	212.188	-4.65782	138.872	199.814	7.71029	105.575	194.719	7.23265	78.224	187.271	-10.7875	59.4281	243.423	-40.8754	84.6919	241.341	-47.8632	53.4698	232.224	-41.0956	28.3566	222.965	-61.3794	74.8559	210.779	-51.2791	45.1334	187.655	-27.3344	36.5698	209.653	-72.8724	83.8477	199.504	-72.2263	50.973	187.293	-56.1828	32.5263	191.158	-84.8601	97.0312	190.547	-92.3039	73.9625	186.87	-99.3265	49.9576	207.063	-68.2707	137.19	202.797	-58.1326	165.432	226.496	-39.2153	148.758	
48	0.4	212.814	-2.77825	137.583	199.015	8.6532	107.272	193.521	5.45684	77.2136	186.286	-6.7248	60.1328	242.318	-45.3143	79.3845	243.726	-44.3496	55.2105	228.806	-43.933	29.8692	222.406	-61.8849	74.5533	212.619	-52.4319	46.6065	187.937	-28.8216	36.8613	211.101	-72.2702	81.7132	201.671	-72.5056	54.3349	182.665	-53.3996	30.6053	189.551	-83.6871	97.9255	184.949	-94.9337	74.0597	184.365	-96.4152	48.8757	205.644	-67.1214	138.047	201.932	-61.4446	163.07	226.973	-40.1743	147.472	
49	0.408333	211.133	-4.2849	135.964	197.906	6.19698	102.937	191.531	8.2001	79.342	184.309	-7.67026	58.2095	238.598	-42.5374	81.9332	237.563	-43.6141	49.7051	224.209	-39.5971	25.4201	224.299	-57.1105	77.6393	207.431	-52.5445	44.8714	187.218	-29.5565	37.58	206.698	-73.2205	80.0918	201.856	-68.9222	52.8619	182.851	-51.0347	30.4071	190.234	-79.4444	96.4654	183.031	-90.1001	71.5756	181.711	-91.745	47.2561	205.643	-66.5776	134.88	201.172	-57.0272	161.129	226.098	-40.063	147.34	
50	0.416667	212.372	-0.640312	133.498	196.529	10.4384	104.485	191.072	8.95572	79.84	184.163	-6.09374	56.0704	241.376	-40.83	79.7168	239.799	-41.4723	50.472	226.415	-38.3689	26.8636	224.143	-57.463	71.9952	212.539	-50.2779	46.4556	183.833	-30.188	38.0085	205.851	-72.9107	80.3439	199.01	-69.4448	52.9465	180.085	-50.4837	31.2622	188.999	-79.3161	94.0288	186.78	-86.2126	69.428	175.081	-88.1514	44.8249	208.151	-64.4385	131.587	202.869	-58.0275	160.317	224.043	-39.3791	146.967	
51	0.425	211.67	1.66942	137.222	197.406	6.97856	103.826	190.583	6.47903	80.5899	184.225	-6.79738	57.6118	238.914	-41.6082	83.0595	237.952	-42.6741	54.3751	227.605	-36.1262	26.639	222.742	-57.205	77.3022	212.344	-51.1324	47.2651	186.858	-25.0407	36.7598	204.561	-72.9002	82.2865	199.478	-66.1885	50.0618	180.144	-49.6837	31.8092	189.376	-79.9169	93.5188	182.195	-87.5477	72.4598	176.893	-86.4348	41.456	207.301	-64.8057	132.473	199.049	-59.5847	162.354	226.639	-38.5686	146.852	
52	0.433333	213.716	-1.12419	136.475	197.409	8.01038	105.161	191.234	3.23534	79.7635	185.095	-5.16178	58.4394	239.254	-43.7309	79.2093	240.173	-41.9461	50.6508	222.841	-39.4969	24.8914	222.191	-60.2927	74.2552	212.585	-50.5077	47.4059	184.216	-29.395	38.2626	207.602	-72.0798	79.5824	198.633	-68.448	52.4926	180.551	-50.329	32.3174	189.95	-80.1853	95.6089	185.453	-87.7491	70.9884	178.5	-87.713	44.5065	206.238	-67.7951	134.852	201.832	-56.3955	164.921	224.771	-40.8729	146.402	
